<svg xmlns="http://www.w3.org/2000/svg" width="1024" height="1024" viewBox="0 0 1024 1024">
<g>
<path d="M 490.32 809.93 C484.23,811.62 126.64,811.32 121.89,809.62 C116.19,807.59 112.34,804.34 110.09,799.68 C108.00,795.37 108.00,795.29 108.00,651.75 C108.00,552.45 108.33,507.26 109.07,505.32 C111.48,498.96 119.10,494.06 126.67,494.02 L 130.84 494.00 L 131.17 481.57 C131.45,470.89 131.79,468.75 133.56,466.38 C136.54,462.39 140.10,460.00 144.58,458.96 C146.73,458.46 173.14,458.04 203.25,458.02 L 258.00 458.00 L 258.00 416.96 C258.00,378.66 258.13,375.67 259.89,372.21 C260.94,370.17 262.71,367.67 263.83,366.65 C266.55,364.19 272.64,362.10 277.25,362.04 L 281.00 362.00 L 281.00 350.15 C281.00,339.51 281.23,337.95 283.26,334.90 C284.50,333.03 287.52,330.49 289.97,329.25 L 294.42 327.00 L 415.92 327.00 L 416.50 265.34 L 419.38 261.56 C422.83,257.04 428.93,254.05 434.75,254.02 L 439.00 254.00 L 439.00 242.15 C439.00,229.15 440.03,226.25 446.32,221.59 L 449.15 219.50 L 621.82 219.00 L 794.50 218.50 L 800.42 214.61 C821.61,200.69 851.66,198.72 873.65,209.82 C896.60,221.41 912.64,245.40 914.61,271.11 C916.79,299.48 900.73,328.73 875.67,342.02 L 871.03 344.48 L 870.76 441.65 L 870.50 538.81 L 867.43 542.66 C862.86,548.37 858.91,549.99 849.50,550.01 C838.77,550.03 837.54,550.48 835.44,555.14 C833.19,560.12 828.17,564.58 823.28,565.94 C820.85,566.61 799.33,566.99 763.00,567.00 L 706.50 567.00 L 706.14 607.25 C705.84,640.67 705.53,648.01 704.27,650.50 C700.16,658.65 695.25,661.00 682.29,661.00 L 672.50 661.01 L 670.65 665.52 C668.50,670.74 663.52,675.23 658.08,676.86 C655.41,677.66 636.93,678.00 596.63,678.00 L 539.00 678.00 L 538.98 728.25 C538.96,775.17 538.83,778.77 537.09,782.62 C533.49,790.53 526.11,793.93 512.40,793.98 L 505.30 794.00 L 503.48 798.04 C501.16,803.20 495.21,808.57 490.32,809.93 ZM 126.00 512.00 L 126.00 728.23 L 130.25 724.46 C132.59,722.39 149.76,706.25 168.40,688.60 C216.67,642.90 216.30,643.24 222.17,640.50 C228.59,637.51 240.88,637.05 248.07,639.52 C251.27,640.63 260.80,648.10 282.49,666.52 C298.98,680.54 312.97,692.00 313.58,692.00 C314.19,692.00 329.27,678.22 347.09,661.39 C382.00,628.41 385.20,626.03 394.55,626.01 C405.00,625.99 405.79,626.72 447.38,674.49 C468.22,698.42 485.66,718.00 486.13,718.00 C486.61,718.00 486.98,689.28 486.96,653.75 L 486.92 589.50 L 476.74 584.62 C467.71,580.30 465.45,578.65 456.91,570.11 C448.56,561.76 446.66,559.20 442.72,550.98 C437.41,539.92 435.00,530.11 435.00,519.55 L 435.00 512.00 ZM 126.00 772.75 L 126.00 792.00 L 305.89 792.00 C451.63,792.00 485.88,791.76 486.28,790.71 C486.55,790.01 486.64,780.08 486.47,768.65 C486.24,753.34 485.81,747.40 484.83,746.05 C483.28,743.92 466.06,724.04 440.54,694.92 C415.66,666.54 399.86,648.25 398.25,645.94 C396.05,642.81 391.88,643.49 387.95,647.61 C382.10,653.75 322.65,709.48 320.03,711.29 C316.94,713.43 312.81,713.47 308.84,711.42 C307.15,710.54 295.13,701.00 282.14,690.21 C269.14,679.42 254.55,667.30 249.71,663.29 C241.54,656.51 240.60,656.00 236.21,656.00 C233.32,656.01 230.34,656.74 228.50,657.90 C226.85,658.94 211.51,673.00 194.41,689.14 C177.31,705.29 154.92,726.38 144.66,736.00 L 126.00 753.50 ZM 642.50 574.26 C648.00,580.71 652.84,586.00 653.25,586.00 C653.66,586.00 654.00,557.31 653.99,522.25 L 653.99 458.50 L 647.52 456.06 C638.03,452.49 625.51,443.59 618.89,435.71 C607.82,422.52 602.24,408.28 601.29,390.75 L 600.70 380.00 L 276.00 380.00 L 276.00 458.00 L 370.10 458.00 C462.94,458.00 464.23,457.97 467.03,455.98 C471.92,452.50 482.18,448.13 490.41,446.02 C499.86,443.61 515.23,443.34 525.08,445.43 C549.56,450.62 570.81,470.24 578.77,495.00 L 581.50 503.50 L 607.00 533.01 C621.02,549.24 637.00,567.80 642.50,574.26 ZM 811.93 469.17 C815.00,472.84 817.84,475.88 818.26,475.92 C818.67,475.96 818.90,447.16 818.76,411.91 L 818.50 347.82 L 812.50 345.30 C798.94,339.62 784.74,327.29 777.12,314.60 C771.66,305.50 767.91,293.00 767.27,281.75 L 766.71 272.00 L 434.00 272.00 L 434.00 327.00 L 629.97 327.00 L 634.81 324.02 C647.33,316.32 659.09,313.04 674.30,313.02 C696.89,312.98 713.22,319.84 727.71,335.44 C740.95,349.69 746.94,363.85 747.79,382.94 L 748.30 394.38 L 777.33 428.44 C793.30,447.17 808.87,465.50 811.93,469.17 ZM 706.00 454.28 L 706.00 548.00 L 819.00 548.00 L 819.00 506.41 L 805.32 489.96 C788.66,469.91 752.28,427.24 746.38,420.84 C742.69,416.84 742.00,416.44 741.49,418.04 C740.13,422.33 730.85,434.93 724.90,440.56 C721.38,443.89 715.69,448.34 712.25,450.45 ZM 539.06 585.50 L 539.00 659.00 L 654.00 659.00 L 653.98 616.50 L 647.30 608.50 C628.34,585.79 581.69,531.97 581.31,532.36 C581.06,532.61 580.18,535.41 579.35,538.60 C575.10,554.85 560.61,573.29 545.24,582.00 ZM 496.28 572.49 C505.19,574.43 512.56,574.29 521.44,572.01 C531.62,569.41 539.01,565.11 547.12,557.05 C561.03,543.22 566.83,523.61 562.46,505.10 C557.91,485.78 541.20,468.60 521.99,463.49 C515.13,461.66 501.11,461.59 494.49,463.36 C475.01,468.55 459.60,484.09 454.49,503.70 C451.20,516.31 453.75,534.90 460.27,545.93 C467.75,558.58 482.57,569.51 496.28,572.49 ZM 836.50 332.33 C844.60,333.19 856.47,330.86 864.94,326.76 C872.84,322.93 885.18,311.06 889.29,303.32 C893.00,296.36 896.00,284.14 896.00,276.05 C896.00,252.64 880.15,231.16 857.06,223.29 C851.91,221.53 848.24,221.05 840.00,221.05 C823.25,221.04 811.81,226.03 800.29,238.36 C774.66,265.81 782.76,310.44 816.35,326.77 C822.08,329.56 829.40,331.57 836.50,332.33 ZM 661.79 441.52 C674.60,444.77 692.09,441.64 704.09,433.94 C709.91,430.21 718.83,420.90 722.24,415.00 C734.88,393.17 731.13,364.90 713.24,347.06 C691.60,325.47 657.85,325.45 635.89,347.00 C628.84,353.91 624.43,361.39 621.39,371.55 C619.00,379.54 619.00,394.45 621.40,402.50 C627.14,421.86 642.39,436.58 661.79,441.52 ZM 220.91 619.11 C199.07,625.90 175.32,612.01 169.41,588.98 C165.57,573.99 170.28,558.51 181.97,547.69 C189.29,540.91 196.52,537.92 207.31,537.24 C232.95,535.60 252.33,555.44 250.81,581.77 C249.79,599.33 238.29,613.70 220.91,619.11 ZM 457.00 237.00 L 457.00 254.00 L 770.19 254.00 L 770.77 251.77 C771.09,250.54 772.77,246.72 774.51,243.27 L 777.66 237.00 ZM 299.00 345.00 L 299.00 362.00 L 604.50 361.96 L 612.83 345.00 ZM 150.67 493.33 C151.49,494.15 433.63,494.21 436.68,493.39 C438.05,493.02 439.47,491.26 440.50,488.65 C441.40,486.37 443.23,482.81 444.58,480.75 L 447.03 477.00 L 150.00 477.00 L 150.00 484.83 C150.00,489.14 150.30,492.97 150.67,493.33 ZM 505.00 592.00 L 505.00 775.00 L 521.00 775.00 L 521.00 590.75 L 517.88 591.38 C516.16,591.72 512.56,592.00 509.88,592.00 ZM 837.00 351.00 L 837.00 532.00 L 853.00 532.00 L 853.00 349.75 L 849.88 350.38 C848.16,350.72 844.56,351.00 841.88,351.00 ZM 672.67 642.33 C673.03,642.70 676.63,643.00 680.67,643.00 L 688.00 643.00 L 688.00 461.00 L 672.00 461.00 L 672.00 551.33 C672.00,601.02 672.30,641.97 672.67,642.33 ZM 664.88 407.57 C655.10,417.13 652.51,417.98 647.08,413.41 C644.67,411.38 644.00,410.02 644.00,407.14 C644.00,403.85 644.90,402.56 652.50,395.00 L 661.00 386.54 L 653.61 379.02 C645.54,370.80 644.00,368.48 644.00,364.49 C644.00,360.68 648.99,356.00 653.05,356.00 C655.73,356.00 657.71,357.42 665.13,364.68 L 674.00 373.36 L 682.87 364.68 C690.13,357.58 692.30,356.00 694.82,356.00 C699.04,356.00 702.93,359.62 703.66,364.25 C704.24,367.88 703.99,368.27 695.45,377.00 L 686.64 386.00 L 695.32 394.87 C702.58,402.29 704.00,404.27 704.00,406.95 C704.00,411.55 699.34,416.00 694.53,416.00 C691.35,416.00 689.87,414.99 682.21,407.57 L 673.50 399.15 ZM 203.82 601.63 C213.17,604.19 222.89,600.32 228.66,591.75 C236.70,579.79 232.75,564.17 220.07,557.75 C210.37,552.83 200.34,554.73 192.67,562.92 C189.19,566.64 187.95,568.91 187.06,573.19 C184.36,586.20 191.46,598.24 203.82,601.63 ZM 499.80 543.58 C496.21,545.47 494.10,545.37 490.50,543.12 C486.16,540.42 470.40,523.92 469.55,521.18 C467.98,516.18 473.24,510.00 479.05,510.00 C480.34,510.00 483.96,512.67 488.12,516.69 L 495.05 523.38 L 500.27 518.44 C503.14,515.72 510.93,508.21 517.59,501.75 C528.44,491.20 530.04,490.00 533.25,490.00 C537.72,490.00 542.00,494.53 542.00,499.27 C542.00,501.98 539.44,504.97 522.25,522.27 C511.39,533.21 501.28,542.79 499.80,543.58 ZM 853.88 281.59 C835.72,299.81 831.96,303.12 829.00,303.54 C824.31,304.20 822.86,303.18 811.64,291.28 C803.41,282.56 802.00,280.58 802.00,277.72 C802.00,272.04 807.75,267.83 813.16,269.55 C814.43,269.95 818.30,273.00 821.76,276.33 L 828.05 282.37 L 844.84 265.68 C860.37,250.26 861.91,249.00 865.26,249.00 C869.81,249.00 873.77,252.30 874.64,256.81 C875.26,260.04 874.73,260.68 853.88,281.59 Z" fill="rgb(25,27,43)"/>
<path d="M 468.00 726.37 C477.86,737.72 483.94,744.82 484.83,746.05 C485.81,747.40 486.24,753.34 486.47,768.65 C486.64,780.08 486.55,790.01 486.28,790.71 C485.88,791.76 451.63,792.00 305.89,792.00 L 126.00 792.00 L 126.00 773.00 L 288.75 772.99 C403.80,772.99 452.66,772.67 455.45,771.89 C460.51,770.49 465.49,765.51 466.89,760.45 C467.49,758.28 467.99,749.70 467.99,741.39 ZM 505.00 592.00 L 509.88 592.00 C512.56,592.00 516.16,591.72 517.88,591.38 L 521.00 590.75 L 521.00 775.00 L 505.00 775.00 Z" fill="rgb(37,160,196)"/>
<path d="M 126.00 772.75 L 126.00 753.50 L 144.66 736.00 C154.92,726.38 177.31,705.29 194.41,689.14 C211.51,673.00 226.85,658.94 228.50,657.90 C230.34,656.74 233.32,656.01 236.21,656.00 C240.60,656.00 241.54,656.51 249.71,663.29 C254.55,667.30 269.14,679.42 282.14,690.21 C295.13,701.00 307.15,710.54 308.84,711.42 C312.81,713.47 316.94,713.43 320.03,711.29 C322.65,709.48 382.10,653.75 387.95,647.61 C391.88,643.49 396.05,642.81 398.25,645.94 C399.86,648.25 415.66,666.54 440.54,694.92 C451.38,707.29 460.72,717.99 468.00,726.37 L 467.99 741.39 C467.99,749.70 467.49,758.28 466.89,760.45 C465.49,765.51 460.51,770.49 455.45,771.89 C452.66,772.67 403.80,772.99 288.75,772.99 L 126.00 773.00 ZM 150.67 493.33 C150.30,492.97 150.00,489.14 150.00,484.83 L 150.00 477.00 L 447.03 477.00 L 444.58 480.75 C443.23,482.81 441.40,486.37 440.50,488.65 C439.47,491.26 438.05,493.02 436.68,493.39 C433.63,494.21 151.49,494.15 150.67,493.33 Z" fill="rgb(75,202,201)"/>
<path d="M 706.00 454.28 L 712.25 450.45 C715.69,448.34 721.38,443.89 724.90,440.56 C730.85,434.93 740.13,422.33 741.49,418.04 C742.00,416.44 742.69,416.84 746.38,420.84 C752.28,427.24 788.66,469.91 805.32,489.96 L 819.00 506.41 L 819.00 548.00 L 706.00 548.00 ZM 496.28 572.49 C482.57,569.51 467.75,558.58 460.27,545.93 C453.75,534.90 451.20,516.31 454.49,503.70 C459.60,484.09 475.01,468.55 494.49,463.36 C501.11,461.59 515.13,461.66 521.99,463.49 C541.20,468.60 557.91,485.78 562.46,505.10 C566.83,523.61 561.03,543.22 547.12,557.05 C539.01,565.11 531.62,569.41 521.44,572.01 C512.56,574.29 505.19,574.43 496.28,572.49 ZM 836.50 332.33 C829.40,331.57 822.08,329.56 816.35,326.77 C782.76,310.44 774.66,265.81 800.29,238.36 C811.81,226.03 823.25,221.04 840.00,221.05 C848.24,221.05 851.91,221.53 857.06,223.29 C880.15,231.16 896.00,252.64 896.00,276.05 C896.00,284.14 893.00,296.36 889.29,303.32 C885.18,311.06 872.84,322.93 864.94,326.76 C856.47,330.86 844.60,333.19 836.50,332.33 ZM 499.80 543.58 C501.28,542.79 511.39,533.21 522.25,522.27 C539.44,504.97 542.00,501.98 542.00,499.27 C542.00,494.53 537.72,490.00 533.25,490.00 C530.04,490.00 528.44,491.20 517.59,501.75 C510.93,508.21 503.14,515.72 500.27,518.44 L 495.05 523.38 L 488.12 516.69 C483.96,512.67 480.34,510.00 479.05,510.00 C473.24,510.00 467.98,516.18 469.55,521.18 C470.40,523.92 486.16,540.42 490.50,543.12 C494.10,545.37 496.21,545.47 499.80,543.58 ZM 853.88 281.59 C874.73,260.68 875.26,260.04 874.64,256.81 C873.77,252.30 869.81,249.00 865.26,249.00 C861.91,249.00 860.37,250.26 844.84,265.68 L 828.05 282.37 L 821.76 276.33 C818.30,273.00 814.43,269.95 813.16,269.55 C807.75,267.83 802.00,272.04 802.00,277.72 C802.00,280.58 803.41,282.56 811.64,291.28 C822.86,303.18 824.31,304.20 829.00,303.54 C831.96,303.12 835.72,299.81 853.88,281.59 Z" fill="rgb(143,200,129)"/>
<path d="M 539.06 585.50 L 545.24 582.00 C560.61,573.29 575.10,554.85 579.35,538.60 C580.18,535.41 581.06,532.61 581.31,532.36 C581.69,531.97 628.34,585.79 647.30,608.50 L 653.98 616.50 L 654.00 659.00 L 539.00 659.00 ZM 661.79 441.52 C642.39,436.58 627.14,421.86 621.40,402.50 C619.00,394.45 619.00,379.54 621.39,371.55 C624.43,361.39 628.84,353.91 635.89,347.00 C657.85,325.45 691.60,325.47 713.24,347.06 C731.13,364.90 734.88,393.17 722.24,415.00 C718.83,420.90 709.91,430.21 704.09,433.94 C692.09,441.64 674.60,444.77 661.79,441.52 ZM 457.00 237.00 L 777.66 237.00 L 774.51 243.27 C772.77,246.72 771.09,250.54 770.77,251.77 L 770.19 254.00 L 457.00 254.00 ZM 299.00 345.00 L 612.83 345.00 L 604.50 361.96 L 299.00 362.00 ZM 837.00 351.00 L 841.88 351.00 C844.56,351.00 848.16,350.72 849.88,350.38 L 853.00 349.75 L 853.00 532.00 L 837.00 532.00 ZM 672.67 642.33 C672.30,641.97 672.00,601.02 672.00,551.33 L 672.00 461.00 L 688.00 461.00 L 688.00 643.00 L 680.67 643.00 C676.63,643.00 673.03,642.70 672.67,642.33 ZM 664.88 407.57 L 673.50 399.15 L 682.21 407.57 C689.87,414.99 691.35,416.00 694.53,416.00 C699.34,416.00 704.00,411.55 704.00,406.95 C704.00,404.27 702.58,402.29 695.32,394.87 L 686.64 386.00 L 695.45 377.00 C703.99,368.27 704.24,367.88 703.66,364.25 C702.93,359.62 699.04,356.00 694.82,356.00 C692.30,356.00 690.13,357.58 682.87,364.68 L 674.00 373.36 L 665.13 364.68 C657.71,357.42 655.73,356.00 653.05,356.00 C648.99,356.00 644.00,360.68 644.00,364.49 C644.00,368.48 645.54,370.80 653.61,379.02 L 661.00 386.54 L 652.50 395.00 C644.90,402.56 644.00,403.85 644.00,407.14 C644.00,410.02 644.67,411.38 647.08,413.41 C652.51,417.98 655.10,417.13 664.88,407.57 ZM 203.82 601.63 C191.46,598.24 184.36,586.20 187.06,573.19 C187.95,568.91 189.19,566.64 192.67,562.92 C200.34,554.73 210.37,552.83 220.07,557.75 C232.75,564.17 236.70,579.79 228.66,591.75 C222.89,600.32 213.17,604.19 203.82,601.63 Z" fill="rgb(244,160,113)"/>
<path d="M 0.00 512.00 L 0.00 0.00 L 512.00 0.00 L 1024.00 0.00 L 1024.00 512.00 L 1024.00 1024.00 L 512.00 1024.00 L 0.00 1024.00 L 0.00 512.00 ZM 490.32 809.93 C495.21,808.57 501.16,803.20 503.48,798.04 L 505.30 794.00 L 512.40 793.98 C526.11,793.93 533.49,790.53 537.09,782.62 C538.83,778.77 538.96,775.17 538.98,728.25 L 539.00 678.00 L 596.63 678.00 C636.93,678.00 655.41,677.66 658.08,676.86 C663.52,675.23 668.50,670.74 670.65,665.52 L 672.50 661.01 L 682.29 661.00 C695.25,661.00 700.16,658.65 704.27,650.50 C705.53,648.01 705.84,640.67 706.14,607.25 L 706.50 567.00 L 763.00 567.00 C799.33,566.99 820.85,566.61 823.28,565.94 C828.17,564.58 833.19,560.12 835.44,555.14 C837.54,550.48 838.77,550.03 849.50,550.01 C858.91,549.99 862.86,548.37 867.43,542.66 L 870.50 538.81 L 870.76 441.65 L 871.03 344.48 L 875.67 342.02 C900.73,328.73 916.79,299.48 914.61,271.11 C912.64,245.40 896.60,221.41 873.65,209.82 C851.66,198.72 821.61,200.69 800.42,214.61 L 794.50 218.50 L 621.82 219.00 L 449.15 219.50 L 446.32 221.59 C440.03,226.25 439.00,229.15 439.00,242.15 L 439.00 254.00 L 434.75 254.02 C428.93,254.05 422.83,257.04 419.38,261.56 L 416.50 265.34 L 416.21 296.17 L 415.92 327.00 L 355.17 327.00 L 294.42 327.00 L 289.97 329.25 C287.52,330.49 284.50,333.03 283.26,334.90 C281.23,337.95 281.00,339.51 281.00,350.15 L 281.00 362.00 L 277.25 362.04 C272.64,362.10 266.55,364.19 263.83,366.65 C262.71,367.67 260.94,370.17 259.89,372.21 C258.13,375.67 258.00,378.66 258.00,416.96 L 258.00 458.00 L 203.25 458.02 C173.14,458.04 146.73,458.46 144.58,458.96 C140.10,460.00 136.54,462.39 133.56,466.38 C131.79,468.75 131.45,470.89 131.17,481.57 L 130.84 494.00 L 126.67 494.02 C119.10,494.06 111.48,498.96 109.07,505.32 C108.33,507.26 108.00,552.45 108.00,651.75 C108.00,795.29 108.00,795.37 110.09,799.68 C112.34,804.34 116.19,807.59 121.89,809.62 C126.64,811.32 484.23,811.62 490.32,809.93 ZM 126.00 620.12 L 126.00 512.00 L 280.50 512.00 L 435.00 512.00 L 435.00 519.55 C435.00,530.11 437.41,539.92 442.72,550.98 C446.66,559.20 448.56,561.76 456.91,570.11 C465.45,578.65 467.71,580.30 476.74,584.62 L 486.92 589.50 L 486.96 653.75 C486.98,689.28 486.61,718.00 486.13,718.00 C485.66,718.00 468.22,698.42 447.38,674.49 C405.79,626.72 405.00,625.99 394.55,626.01 C385.20,626.03 382.00,628.41 347.09,661.39 C329.27,678.22 314.19,692.00 313.58,692.00 C312.97,692.00 298.98,680.54 282.49,666.52 C260.80,648.10 251.27,640.63 248.07,639.52 C240.88,637.05 228.59,637.51 222.17,640.50 C216.30,643.24 216.67,642.90 168.40,688.60 C149.76,706.25 132.59,722.39 130.25,724.46 L 126.00 728.23 L 126.00 620.12 ZM 220.91 619.11 C238.29,613.70 249.79,599.33 250.81,581.77 C252.33,555.44 232.95,535.60 207.31,537.24 C196.52,537.92 189.29,540.91 181.97,547.69 C170.28,558.51 165.57,573.99 169.41,588.98 C175.32,612.01 199.07,625.90 220.91,619.11 ZM 642.50 574.26 C637.00,567.80 621.02,549.24 607.00,533.01 L 581.50 503.50 L 578.77 495.00 C570.81,470.24 549.56,450.62 525.08,445.43 C515.23,443.34 499.86,443.61 490.41,446.02 C482.18,448.13 471.92,452.50 467.03,455.98 C464.23,457.97 462.94,458.00 370.10,458.00 L 276.00 458.00 L 276.00 419.00 L 276.00 380.00 L 438.35 380.00 L 600.70 380.00 L 601.29 390.75 C602.24,408.28 607.82,422.52 618.89,435.71 C625.51,443.59 638.03,452.49 647.52,456.06 L 653.99 458.50 L 653.99 522.25 C654.00,557.31 653.66,586.00 653.25,586.00 C652.84,586.00 648.00,580.71 642.50,574.26 ZM 811.93 469.17 C808.87,465.50 793.30,447.17 777.33,428.44 L 748.30 394.38 L 747.79 382.94 C746.94,363.85 740.95,349.69 727.71,335.44 C713.22,319.84 696.89,312.98 674.30,313.02 C659.09,313.04 647.33,316.32 634.81,324.02 L 629.97 327.00 L 531.98 327.00 L 434.00 327.00 L 434.00 299.50 L 434.00 272.00 L 600.35 272.00 L 766.71 272.00 L 767.27 281.75 C767.91,293.00 771.66,305.50 777.12,314.60 C784.74,327.29 798.94,339.62 812.50,345.30 L 818.50 347.82 L 818.76 411.91 C818.90,447.16 818.67,475.96 818.26,475.92 C817.84,475.88 815.00,472.84 811.93,469.17 Z" fill="rgb(254,254,254)"/>
</g>
</svg>